<?xml version="1.0" encoding="UTF-8" standalone="no"?>
<svg
   xmlns:dc="http://purl.org/dc/elements/1.1/"
   xmlns:cc="http://creativecommons.org/ns#"
   xmlns:rdf="http://www.w3.org/1999/02/22-rdf-syntax-ns#"
   xmlns:svg="http://www.w3.org/2000/svg"
   xmlns="http://www.w3.org/2000/svg"
   viewBox="0 0 2560 1920"
   height="1920"
   width="2560"
   xml:space="preserve"
   id="svg2"
   version="1.1"><metadata
     id="metadata8"><rdf:RDF><cc:Work
         rdf:about=""><dc:format>image/svg+xml</dc:format><dc:type
           rdf:resource="http://purl.org/dc/dcmitype/StillImage" /></cc:Work></rdf:RDF></metadata><defs
     id="defs6"><clipPath
       id="clipPath20"
       clipPathUnits="userSpaceOnUse"><path
         id="path18"
         d="M 0,1440 H 1920 V 0 H 0 Z" /></clipPath></defs><g
     transform="matrix(1.3333333,0,0,-1.3333333,0,1920)"
     id="g10"><path
       id="path12"
       style="fill:#e22225;fill-opacity:1;fill-rule:nonzero;stroke:none"
       d="m 519.821,940.09 h 880.358 V 499.91 H 519.821 Z" /><g
       id="g14"><g
         clip-path="url(#clipPath20)"
         id="g16"><g
           transform="translate(814.5659,719.3838)"
           id="g22"><path
             id="path24"
             style="fill:#ffffff;fill-opacity:1;fill-rule:nonzero;stroke:none"
             d="m 0,0 v 1.643 c 0,45.965 33.655,74.9 77.98,74.9 42.068,0 68.95,-18.469 72.644,-60.742 H 93.986 C 93.37,26.884 87.625,33.45 78.186,33.45 65.257,33.45 57.664,23.189 57.664,1.848 V 0.205 c 0,-20.725 7.388,-31.808 21.547,-31.808 10.055,0 17.443,5.336 18.675,17.649 h 54.585 C 150.829,-53.969 121.279,-75.311 80.648,-75.311 24.831,-75.311 0,-44.94 0,0" /></g><g
           transform="translate(1035.3643,702.9678)"
           id="g26"><path
             id="path28"
             style="fill:#ffffff;fill-opacity:1;fill-rule:nonzero;stroke:none"
             d="M 0,0 H 23.394 L 11.902,46.788 Z M -19.7,90.703 H 50.687 L 95.627,-56.021 H 37.348 l -4.925,19.494 H -9.029 l -4.926,-19.494 h -50.892 z" /></g><g
           transform="translate(1147.1963,793.6709)"
           id="g30"><path
             id="path32"
             style="fill:#ffffff;fill-opacity:1;fill-rule:nonzero;stroke:none"
             d="M 0,0 H 70.181 L 89.471,-58.691 109.376,0 h 68.952 v -146.725 h -54.382 v 77.978 L 94.807,-146.725 H 76.338 L 48.43,-68.747 v -77.978 H 0 Z" /></g><g
           transform="translate(822.0566,603.9219)"
           id="g34"><path
             id="path36"
             style="fill:#ffffff;fill-opacity:1;fill-rule:nonzero;stroke:none"
             d="m 0,0 v 0.285 c 0,7.729 5.413,12.999 12.643,12.999 6.126,0 10.684,-2.991 11.29,-9.26 H 18.021 C 17.593,7.088 15.884,8.726 12.678,8.726 8.654,8.726 6.09,5.592 6.09,0.321 V 0.036 c 0,-5.27 2.422,-8.334 6.624,-8.334 3.17,0 5.378,1.603 5.841,4.879 h 5.662 C 23.576,-9.722 19.053,-12.963 12.785,-12.963 4.452,-12.963 0,-7.835 0,0" /></g><g
           transform="translate(869.5347,603.9932)"
           id="g38"><path
             id="path40"
             style="fill:#ffffff;fill-opacity:1;fill-rule:nonzero;stroke:none"
             d="m 0,0 v 0.285 c 0,4.95 -2.635,8.334 -7.087,8.334 -4.416,0 -7.087,-3.241 -7.087,-8.369 v -0.285 c 0,-5.199 2.991,-8.405 7.158,-8.405 C -2.707,-8.44 0,-5.128 0,0 m -20.193,-0.071 v 0.285 c 0,7.586 5.556,12.964 13.106,12.964 7.657,0 13.106,-5.164 13.106,-12.822 V 0.071 c 0,-7.585 -5.2,-13.105 -13.142,-13.105 -7.977,0 -13.07,5.52 -13.07,12.963" /></g><g
           transform="translate(880.3672,616.8145)"
           id="g42"><path
             id="path44"
             style="fill:#ffffff;fill-opacity:1;fill-rule:nonzero;stroke:none"
             d="m 0,0 h 6.695 l 9.687,-16.774 V 0 h 5.129 V -25.464 H 15.742 L 5.128,-7.336 V -25.464 H 0 Z" /></g><g
           transform="translate(906.4067,599.3281)"
           id="g46"><path
             id="path48"
             style="fill:#ffffff;fill-opacity:1;fill-rule:nonzero;stroke:none"
             d="m 0,0 h 5.52 c 0.25,-2.279 1.211,-4.167 4.986,-4.167 2.529,0 4.202,1.389 4.202,3.384 0,2.029 -1.068,2.742 -4.807,3.311 -6.518,0.856 -9.189,2.814 -9.189,7.729 0,4.345 3.633,7.586 9.26,7.586 5.734,0 9.082,-2.565 9.545,-7.621 H 14.21 c -0.356,2.314 -1.71,3.382 -4.238,3.382 -2.529,0 -3.811,-1.174 -3.811,-2.884 0,-1.817 0.819,-2.671 4.737,-3.241 6.161,-0.784 9.331,-2.458 9.331,-7.728 0,-4.523 -3.704,-8.12 -9.723,-8.12 C 3.526,-8.369 0.32,-5.093 0,0" /></g><g
           transform="translate(935.686,612.3271)"
           id="g50"><path
             id="path52"
             style="fill:#ffffff;fill-opacity:1;fill-rule:nonzero;stroke:none"
             d="M 0,0 H -6.874 V 4.487 H 12.679 V 0 H 5.805 V -20.977 H 0 Z" /></g><g
           transform="translate(961.5815,605.0977)"
           id="g54"><path
             id="path56"
             style="fill:#ffffff;fill-opacity:1;fill-rule:nonzero;stroke:none"
             d="M 0,0 C 2.885,0 4.345,1.211 4.345,3.668 V 3.811 C 4.345,6.41 2.778,7.301 0,7.301 H -3.241 V 0 Z m -8.975,11.717 h 9.118 c 6.019,0 9.829,-2.457 9.829,-7.729 V 3.847 C 9.972,0 7.729,-2.03 4.737,-2.921 l 6.731,-10.826 H 5.342 l -6.09,9.829 h -2.493 v -9.829 h -5.734 z" /></g><g
           transform="translate(976.5806,601.2871)"
           id="g58"><path
             id="path60"
             style="fill:#ffffff;fill-opacity:1;fill-rule:nonzero;stroke:none"
             d="M 0,0 V 15.527 H 5.805 V 0.355 c 0,-4.237 1.246,-6.089 4.737,-6.089 3.418,0 4.914,1.638 4.914,6.303 v 14.958 h 5.805 V 0.214 c 0,-6.945 -3.882,-10.542 -10.755,-10.542 C 3.811,-10.328 0,-6.767 0,0" /></g><path
           id="path62"
           style="fill:#ffffff;fill-opacity:1;fill-rule:nonzero;stroke:none"
           d="m 1003.902,616.814 h 5.805 V 591.35 h -5.805 z" /><g
           transform="translate(1015.9771,616.8145)"
           id="g64"><path
             id="path66"
             style="fill:#ffffff;fill-opacity:1;fill-rule:nonzero;stroke:none"
             d="M 0,0 H 7.622 L 13.569,-15.848 19.445,0 h 7.479 V -25.464 H 21.19 V -7.586 L 14.139,-25.464 H 12.251 L 5.164,-7.586 V -25.464 H 0 Z" /></g><g
           transform="translate(1067.9448,603.9932)"
           id="g68"><path
             id="path70"
             style="fill:#ffffff;fill-opacity:1;fill-rule:nonzero;stroke:none"
             d="m 0,0 v 0.285 c 0,4.95 -2.635,8.334 -7.087,8.334 -4.416,0 -7.087,-3.241 -7.087,-8.369 v -0.285 c 0,-5.199 2.991,-8.405 7.158,-8.405 C -2.707,-8.44 0,-5.128 0,0 m -20.193,-0.071 v 0.285 c 0,7.586 5.556,12.964 13.106,12.964 7.657,0 13.106,-5.164 13.106,-12.822 V 0.071 c 0,-7.585 -5.2,-13.105 -13.142,-13.105 -7.977,0 -13.07,5.52 -13.07,12.963" /></g><g
           transform="translate(1076.8188,599.3281)"
           id="g72"><path
             id="path74"
             style="fill:#ffffff;fill-opacity:1;fill-rule:nonzero;stroke:none"
             d="m 0,0 h 5.52 c 0.25,-2.279 1.211,-4.167 4.986,-4.167 2.529,0 4.202,1.389 4.202,3.384 0,2.029 -1.068,2.742 -4.807,3.311 -6.518,0.856 -9.189,2.814 -9.189,7.729 0,4.345 3.633,7.586 9.26,7.586 5.734,0 9.082,-2.565 9.545,-7.621 H 14.21 c -0.356,2.314 -1.71,3.382 -4.238,3.382 -2.529,0 -3.811,-1.174 -3.811,-2.884 0,-1.817 0.819,-2.671 4.737,-3.241 6.161,-0.784 9.331,-2.458 9.331,-7.728 0,-4.523 -3.704,-8.12 -9.723,-8.12 C 3.526,-8.369 0.32,-5.093 0,0" /></g><g
           transform="translate(1109.0908,603.9219)"
           id="g76"><path
             id="path78"
             style="fill:#ffffff;fill-opacity:1;fill-rule:nonzero;stroke:none"
             d="m 0,0 v 0.285 c 0,7.729 5.414,12.999 12.643,12.999 6.126,0 10.685,-2.991 11.29,-9.26 H 18.021 C 17.594,7.088 15.884,8.726 12.679,8.726 8.654,8.726 6.09,5.592 6.09,0.321 V 0.036 c 0,-5.27 2.422,-8.334 6.624,-8.334 3.17,0 5.378,1.603 5.841,4.879 h 5.663 C 23.577,-9.722 19.054,-12.963 12.786,-12.963 4.452,-12.963 0,-7.835 0,0" /></g><g
           transform="translate(1156.5693,603.9932)"
           id="g80"><path
             id="path82"
             style="fill:#ffffff;fill-opacity:1;fill-rule:nonzero;stroke:none"
             d="m 0,0 v 0.285 c 0,4.95 -2.635,8.334 -7.087,8.334 -4.416,0 -7.087,-3.241 -7.087,-8.369 v -0.285 c 0,-5.199 2.991,-8.405 7.158,-8.405 C -2.707,-8.44 0,-5.128 0,0 m -20.193,-0.071 v 0.285 c 0,7.586 5.556,12.964 13.106,12.964 7.657,0 13.106,-5.164 13.106,-12.822 V 0.071 c 0,-7.585 -5.2,-13.105 -13.142,-13.105 -7.977,0 -13.07,5.52 -13.07,12.963" /></g><g
           transform="translate(1167.4019,616.8145)"
           id="g84"><path
             id="path86"
             style="fill:#ffffff;fill-opacity:1;fill-rule:nonzero;stroke:none"
             d="m 0,0 h 6.695 l 9.687,-16.774 V 0 h 5.129 V -25.464 H 15.742 L 5.128,-7.336 V -25.464 H 0 Z" /></g><g
           transform="translate(1195.0439,616.8145)"
           id="g88"><path
             id="path90"
             style="fill:#ffffff;fill-opacity:1;fill-rule:nonzero;stroke:none"
             d="M 0,0 H 16.347 V -4.522 H 5.77 v -6.732 h 8.369 v -4.345 H 5.77 v -9.865 H 0 Z" /></g><path
           id="path92"
           style="fill:#ffffff;fill-opacity:1;fill-rule:nonzero;stroke:none"
           d="m 1216.024,616.814 h 5.805 V 591.35 h -5.805 z" /><g
           transform="translate(1234.5103,601.1084)"
           id="g94"><path
             id="path96"
             style="fill:#ffffff;fill-opacity:1;fill-rule:nonzero;stroke:none"
             d="M 0,0 H 6.731 L 3.383,11.005 Z M -0.036,15.706 H 7.479 L 15.741,-9.758 H 9.723 l -1.745,5.663 h -9.225 l -1.745,-5.663 h -5.413 z" /></g><g
           transform="translate(1254.3877,616.8145)"
           id="g98"><path
             id="path100"
             style="fill:#ffffff;fill-opacity:1;fill-rule:nonzero;stroke:none"
             d="m 0,0 h 6.695 l 9.687,-16.774 V 0 h 5.129 V -25.464 H 15.742 L 5.128,-7.336 V -25.464 H 0 Z" /></g><g
           transform="translate(1279.9287,592.0625)"
           id="g102"><path
             id="path104"
             style="fill:#ffffff;fill-opacity:1;fill-rule:nonzero;stroke:none"
             d="M 0,0 12.145,20.265 H 1.354 v 4.487 H 20.3 V 24.075 L 8.405,3.812 H 19.873 V -0.712 L 0,-0.712 Z" /></g><g
           transform="translate(1310.9883,601.1084)"
           id="g106"><path
             id="path108"
             style="fill:#ffffff;fill-opacity:1;fill-rule:nonzero;stroke:none"
             d="M 0,0 H 6.731 L 3.383,11.005 Z M -0.036,15.706 H 7.479 L 15.741,-9.758 H 9.723 l -1.745,5.663 h -9.225 l -1.745,-5.663 h -5.413 z" /></g><g
           transform="translate(690.751,708.6875)"
           id="g110"><path
             id="path112"
             style="fill:#ef7b70;fill-opacity:1;fill-rule:nonzero;stroke:none"
             d="m 0,0 -97.567,56.331 v 45.321 L 0,45.322 Z" /></g><g
           transform="translate(690.751,640.9805)"
           id="g114"><path
             id="path116"
             style="fill:#ef7b70;fill-opacity:1;fill-rule:nonzero;stroke:none"
             d="m 0,0 -97.567,56.331 v 45.321 L 0,45.321 Z" /></g><g
           transform="translate(690.751,573.2734)"
           id="g118"><path
             id="path120"
             style="fill:#ef7b70;fill-opacity:1;fill-rule:nonzero;stroke:none"
             d="m 0,0 -97.567,56.331 v 45.321 L 0,45.321 Z" /></g><g
           transform="translate(690.751,708.6875)"
           id="g122"><path
             id="path124"
             style="fill:#ffffff;fill-opacity:1;fill-rule:nonzero;stroke:none"
             d="m 0,0 97.567,56.331 v 45.321 L 0,45.322 Z" /></g><g
           transform="translate(690.751,573.2734)"
           id="g126"><path
             id="path128"
             style="fill:#ffffff;fill-opacity:1;fill-rule:nonzero;stroke:none"
             d="m 0,0 97.567,56.331 v 45.321 L 0,45.321 Z" /></g><g
           transform="translate(593.1836,810.396)"
           id="g130"><path
             id="path132"
             style="fill:#f0aea1;fill-opacity:1;fill-rule:nonzero;stroke:none"
             d="M 0,0 97.567,-56.387 195.135,0 97.567,56.331 Z" /></g></g></g></g></svg>