<?xml version="1.0" encoding="UTF-8" standalone="no"?>
<svg
   xmlns:dc="http://purl.org/dc/elements/1.1/"
   xmlns:cc="http://creativecommons.org/ns#"
   xmlns:rdf="http://www.w3.org/1999/02/22-rdf-syntax-ns#"
   xmlns:svg="http://www.w3.org/2000/svg"
   xmlns="http://www.w3.org/2000/svg"
   viewBox="0 0 793.70667 793.70667"
   height="793.70667"
   width="793.70667"
   xml:space="preserve"
   id="svg2"
   version="1.1"><metadata
     id="metadata8"><rdf:RDF><cc:Work
         rdf:about=""><dc:format>image/svg+xml</dc:format><dc:type
           rdf:resource="http://purl.org/dc/dcmitype/StillImage" /></cc:Work></rdf:RDF></metadata><defs
     id="defs6"><clipPath
       id="clipPath20"
       clipPathUnits="userSpaceOnUse"><path
         id="path18"
         d="M 0,595.28 H 595.28 V 0 H 0 Z" /></clipPath></defs><g
     transform="matrix(1.3333333,0,0,-1.3333333,0,793.70667)"
     id="g10"><path
       id="path12"
       style="fill:#b30000;fill-opacity:1;fill-rule:nonzero;stroke:none"
       d="M 0,0 H 595.28 V 595.28 H 0 Z" /><g
       id="g14"><g
         clip-path="url(#clipPath20)"
         id="g16"><g
           transform="translate(96.9229,300.9533)"
           id="g22"><path
             id="path24"
             style="fill:#ffffff;fill-opacity:1;fill-rule:nonzero;stroke:none"
             d="m 0,0 c 0,-8.334 5.177,-13.89 12.753,-13.89 7.954,0 13.005,5.43 13.005,13.89 0,8.838 -5.051,14.521 -12.753,14.521 C 5.429,14.521 0,8.459 0,0 M -19.066,29.167 H 0.505 v -4.924 c 5.807,5.556 9.723,7.07 17.93,7.07 17.424,0 28.662,-12.374 28.662,-31.566 0,-18.813 -11.617,-31.44 -29.041,-31.44 -7.577,0 -11.869,1.515 -16.667,6.06 v -26.641 h -20.455 z" /></g><g
           transform="translate(148.4922,330.1203)"
           id="g26"><path
             id="path28"
             style="fill:#ffffff;fill-opacity:1;fill-rule:nonzero;stroke:none"
             d="m 0,0 h 19.571 v -7.323 c 4.293,6.692 8.586,9.091 15.658,9.091 1.388,0 2.272,-0.126 7.07,-0.631 v -18.688 c -2.399,0.631 -3.661,0.758 -5.303,0.758 -10.859,0 -16.541,-5.809 -16.541,-16.92 V -58.335 H 0 Z" /></g><g
           transform="translate(233.6982,309.1604)"
           id="g30"><path
             id="path32"
             style="fill:#ffffff;fill-opacity:1;fill-rule:nonzero;stroke:none"
             d="m 0,0 c -1.136,6.565 -4.293,9.344 -10.354,9.344 -5.681,0 -9.469,-3.283 -10.48,-9.344 z m 20.708,-18.94 c -1.516,-12.753 -13.384,-20.834 -30.809,-20.834 -19.571,0 -32.324,12.248 -32.324,31.188 0,18.94 12.5,31.44 31.567,31.44 20.455,0 31.819,-11.743 31.819,-32.703 v -3.914 h -42.3 c 0.505,-7.703 4.041,-11.49 10.86,-11.49 5.05,0 6.691,1.136 9.848,6.313 z" /></g><g
           transform="translate(298.2988,313.4533)"
           id="g34"><path
             id="path36"
             style="fill:#ffffff;fill-opacity:1;fill-rule:nonzero;stroke:none"
             d="m 0,0 c -5.177,2.778 -10.479,4.419 -14.521,4.419 -3.156,0 -5.302,-1.641 -5.429,-4.04 -0.126,-2.273 2.399,-4.167 6.945,-5.304 l 6.187,-1.388 c 9.848,-2.4 13.763,-6.693 13.763,-15.279 0,-14.267 -9.722,-22.727 -25.884,-22.727 -8.965,0 -15.279,1.893 -24.118,7.197 l 6.314,13.889 c 6.565,-3.914 11.237,-5.556 15.657,-5.556 3.788,0 6.44,1.642 6.44,3.788 0,2.147 -2.274,3.662 -7.703,4.925 -8.208,1.893 -10.733,2.904 -13.51,5.303 -3.158,2.904 -4.798,7.071 -4.798,11.869 0,13.258 9.974,21.844 25.379,21.844 7.324,0 13.763,-1.515 22.728,-5.556 z" /></g><path
           id="path38"
           style="fill:#ffffff;fill-opacity:1;fill-rule:nonzero;stroke:none"
           d="m 309.666,330.12 h 20.455 v -58.335 h -20.455 z m 21.465,16.92 c 0,-6.313 -5.051,-11.364 -11.364,-11.364 -6.187,0 -11.238,5.051 -11.238,11.364 0,6.187 5.051,11.238 11.238,11.238 6.313,0 11.364,-5.051 11.364,-11.238" /><g
           transform="translate(376.0186,313.4533)"
           id="g40"><path
             id="path42"
             style="fill:#ffffff;fill-opacity:1;fill-rule:nonzero;stroke:none"
             d="m 0,0 c -5.177,2.778 -10.479,4.419 -14.521,4.419 -3.156,0 -5.302,-1.641 -5.429,-4.04 -0.126,-2.273 2.399,-4.167 6.945,-5.304 l 6.187,-1.388 c 9.848,-2.4 13.763,-6.693 13.763,-15.279 0,-14.267 -9.722,-22.727 -25.884,-22.727 -8.965,0 -15.279,1.893 -24.118,7.197 l 6.314,13.889 c 6.565,-3.914 11.237,-5.556 15.657,-5.556 3.788,0 6.44,1.642 6.44,3.788 0,2.147 -2.274,3.662 -7.703,4.925 -8.208,1.893 -10.733,2.904 -13.51,5.303 -3.157,2.904 -4.798,7.071 -4.798,11.869 0,13.258 9.974,21.844 25.379,21.844 7.324,0 13.763,-1.515 22.728,-5.556 z" /></g><g
           transform="translate(426.4648,313.4533)"
           id="g44"><path
             id="path46"
             style="fill:#ffffff;fill-opacity:1;fill-rule:nonzero;stroke:none"
             d="m 0,0 c -5.177,2.778 -10.479,4.419 -14.521,4.419 -3.156,0 -5.302,-1.641 -5.429,-4.04 -0.126,-2.273 2.399,-4.167 6.945,-5.304 l 6.187,-1.388 c 9.848,-2.4 13.763,-6.693 13.763,-15.279 0,-14.267 -9.722,-22.727 -25.884,-22.727 -8.965,0 -15.279,1.893 -24.118,7.197 l 6.314,13.889 c 6.565,-3.914 11.237,-5.556 15.657,-5.556 3.788,0 6.44,1.642 6.44,3.788 0,2.147 -2.274,3.662 -7.703,4.925 -8.208,1.893 -10.733,2.904 -13.51,5.303 -3.158,2.904 -4.798,7.071 -4.798,11.869 0,13.258 9.974,21.844 25.379,21.844 7.324,0 13.763,-1.515 22.728,-5.556 z" /></g><g
           transform="translate(456.1523,300.9533)"
           id="g48"><path
             id="path50"
             style="fill:#ffffff;fill-opacity:1;fill-rule:nonzero;stroke:none"
             d="m 0,0 c 0,-8.966 5.556,-15.278 13.637,-15.278 7.954,0 13.132,5.934 13.132,15.278 0,9.344 -5.178,15.278 -13.258,15.278 C 5.682,15.278 0,8.838 0,0 m 47.729,0.126 c 0,-18.562 -13.89,-31.44 -33.713,-31.44 -20.708,0 -35.229,12.878 -35.229,31.314 0,18.182 14.521,31.313 34.85,31.313 20.202,0 34.092,-12.752 34.092,-31.187" /></g><g
           transform="translate(529.3018,281.7605)"
           id="g52"><path
             id="path54"
             style="fill:#ffffff;fill-opacity:1;fill-rule:nonzero;stroke:none"
             d="m 0,0 c 0,-6.565 -5.556,-11.995 -12.121,-11.995 -6.692,0 -12.122,5.43 -12.122,12.122 0,6.564 5.556,12.12 12.122,12.12 C -5.556,12.247 0,6.691 0,0" /></g></g></g></g></svg>