<?xml version="1.0" encoding="UTF-8" standalone="no"?>
<svg
   xmlns:dc="http://purl.org/dc/elements/1.1/"
   xmlns:cc="http://creativecommons.org/ns#"
   xmlns:rdf="http://www.w3.org/1999/02/22-rdf-syntax-ns#"
   xmlns:svg="http://www.w3.org/2000/svg"
   xmlns="http://www.w3.org/2000/svg"
   viewBox="0 0 1122.52 793.70135"
   height="793.70135"
   width="1122.52"
   xml:space="preserve"
   id="svg2"
   version="1.1"><metadata
     id="metadata8"><rdf:RDF><cc:Work
         rdf:about=""><dc:format>image/svg+xml</dc:format><dc:type
           rdf:resource="http://purl.org/dc/dcmitype/StillImage" /></cc:Work></rdf:RDF></metadata><defs
     id="defs6"><linearGradient
       id="linearGradient42"
       spreadMethod="pad"
       gradientTransform="matrix(295.50836,0,0,-295.50836,308.52936,339.75925)"
       gradientUnits="userSpaceOnUse"
       y2="0"
       x2="1"
       y1="0"
       x1="0"><stop
         id="stop24"
         offset="0"
         style="stop-opacity:1;stop-color:#ffffff" /><stop
         id="stop26"
         offset="0.16348742"
         style="stop-opacity:1;stop-color:#979a9f" /><stop
         id="stop28"
         offset="0.278406"
         style="stop-opacity:1;stop-color:#979a9f" /><stop
         id="stop30"
         offset="0.28657095"
         style="stop-opacity:1;stop-color:#979a9f" /><stop
         id="stop32"
         offset="0.481299"
         style="stop-opacity:1;stop-color:#ffffff" /><stop
         id="stop34"
         offset="0.6656453"
         style="stop-opacity:1;stop-color:#84878e" /><stop
         id="stop36"
         offset="0.795226"
         style="stop-opacity:1;stop-color:#84878e" /><stop
         id="stop38"
         offset="0.83077088"
         style="stop-opacity:1;stop-color:#84878e" /><stop
         id="stop40"
         offset="1"
         style="stop-opacity:1;stop-color:#ffffff" /></linearGradient><clipPath
       id="clipPath52"
       clipPathUnits="userSpaceOnUse"><path
         id="path50"
         d="M 0,595.276 H 841.89 V 0 H 0 Z" /></clipPath><linearGradient
       id="linearGradient82"
       spreadMethod="pad"
       gradientTransform="matrix(42.796402,0,0,-42.796402,411.21808,377.64795)"
       gradientUnits="userSpaceOnUse"
       y2="0"
       x2="1"
       y1="0"
       x1="0"><stop
         id="stop68"
         offset="0"
         style="stop-opacity:1;stop-color:#ffffff" /><stop
         id="stop70"
         offset="0.30721694"
         style="stop-opacity:1;stop-color:#6d7177" /><stop
         id="stop72"
         offset="0.427136"
         style="stop-opacity:1;stop-color:#6d7177" /><stop
         id="stop74"
         offset="0.55791437"
         style="stop-opacity:1;stop-color:#6d7177" /><stop
         id="stop76"
         offset="0.706658"
         style="stop-opacity:1;stop-color:#ffffff" /><stop
         id="stop78"
         offset="0.96143891"
         style="stop-opacity:1;stop-color:#b6b8bb" /><stop
         id="stop80"
         offset="1"
         style="stop-opacity:1;stop-color:#b6b8bb" /></linearGradient><linearGradient
       id="linearGradient112"
       spreadMethod="pad"
       gradientTransform="matrix(43.065167,0,0,-43.065167,411.21808,316.56009)"
       gradientUnits="userSpaceOnUse"
       y2="0"
       x2="1"
       y1="0"
       x1="0"><stop
         id="stop98"
         offset="0"
         style="stop-opacity:1;stop-color:#ffffff" /><stop
         id="stop100"
         offset="0.30721694"
         style="stop-opacity:1;stop-color:#6d7177" /><stop
         id="stop102"
         offset="0.427136"
         style="stop-opacity:1;stop-color:#6d7177" /><stop
         id="stop104"
         offset="0.55791437"
         style="stop-opacity:1;stop-color:#6d7177" /><stop
         id="stop106"
         offset="0.706658"
         style="stop-opacity:1;stop-color:#ffffff" /><stop
         id="stop108"
         offset="0.96143891"
         style="stop-opacity:1;stop-color:#b6b8bb" /><stop
         id="stop110"
         offset="1"
         style="stop-opacity:1;stop-color:#b6b8bb" /></linearGradient><linearGradient
       id="linearGradient146"
       spreadMethod="pad"
       gradientTransform="matrix(285.6214,0,0,-285.6214,312.29349,378.80054)"
       gradientUnits="userSpaceOnUse"
       y2="0"
       x2="1"
       y1="0"
       x1="0"><stop
         id="stop128"
         offset="0"
         style="stop-opacity:1;stop-color:#6d7177" /><stop
         id="stop130"
         offset="0.16394354"
         style="stop-opacity:1;stop-color:#ffffff" /><stop
         id="stop132"
         offset="0.302907"
         style="stop-opacity:1;stop-color:#ffffff" /><stop
         id="stop134"
         offset="0.40655195"
         style="stop-opacity:1;stop-color:#ffffff" /><stop
         id="stop136"
         offset="0.57112"
         style="stop-opacity:1;stop-color:#979a9f" /><stop
         id="stop138"
         offset="0.57883886"
         style="stop-opacity:1;stop-color:#979a9f" /><stop
         id="stop140"
         offset="0.762928"
         style="stop-opacity:1;stop-color:#b6b8bb" /><stop
         id="stop142"
         offset="0.98197263"
         style="stop-opacity:1;stop-color:#84878e" /><stop
         id="stop144"
         offset="1"
         style="stop-opacity:1;stop-color:#84878e" /></linearGradient><linearGradient
       id="linearGradient180"
       spreadMethod="pad"
       gradientTransform="matrix(285.6214,0,0,-285.6214,312.29349,343.81662)"
       gradientUnits="userSpaceOnUse"
       y2="0"
       x2="1"
       y1="0"
       x1="0"><stop
         id="stop162"
         offset="0"
         style="stop-opacity:1;stop-color:#656263" /><stop
         id="stop164"
         offset="0.16394354"
         style="stop-opacity:1;stop-color:#ffffff" /><stop
         id="stop166"
         offset="0.302907"
         style="stop-opacity:1;stop-color:#ffffff" /><stop
         id="stop168"
         offset="0.41064113"
         style="stop-opacity:1;stop-color:#ffffff" /><stop
         id="stop170"
         offset="0.581702"
         style="stop-opacity:1;stop-color:#918f90" /><stop
         id="stop172"
         offset="0.58899501"
         style="stop-opacity:1;stop-color:#918f90" /><stop
         id="stop174"
         offset="0.762928"
         style="stop-opacity:1;stop-color:#bdbcbc" /><stop
         id="stop176"
         offset="0.98197263"
         style="stop-opacity:1;stop-color:#84878e" /><stop
         id="stop178"
         offset="1"
         style="stop-opacity:1;stop-color:#84878e" /></linearGradient><linearGradient
       id="linearGradient214"
       spreadMethod="pad"
       gradientTransform="matrix(285.6214,0,0,-285.6214,312.29349,317.2113)"
       gradientUnits="userSpaceOnUse"
       y2="0"
       x2="1"
       y1="0"
       x1="0"><stop
         id="stop196"
         offset="0"
         style="stop-opacity:1;stop-color:#6d7177" /><stop
         id="stop198"
         offset="0.16394354"
         style="stop-opacity:1;stop-color:#ffffff" /><stop
         id="stop200"
         offset="0.302907"
         style="stop-opacity:1;stop-color:#ffffff" /><stop
         id="stop202"
         offset="0.40655195"
         style="stop-opacity:1;stop-color:#ffffff" /><stop
         id="stop204"
         offset="0.57112"
         style="stop-opacity:1;stop-color:#979a9f" /><stop
         id="stop206"
         offset="0.57883886"
         style="stop-opacity:1;stop-color:#979a9f" /><stop
         id="stop208"
         offset="0.762928"
         style="stop-opacity:1;stop-color:#b6b8bb" /><stop
         id="stop210"
         offset="0.98197263"
         style="stop-opacity:1;stop-color:#84878e" /><stop
         id="stop212"
         offset="1"
         style="stop-opacity:1;stop-color:#84878e" /></linearGradient><clipPath
       id="clipPath224"
       clipPathUnits="userSpaceOnUse"><path
         id="path222"
         d="M 0,595.276 H 841.89 V 0 H 0 Z" /></clipPath></defs><g
     transform="matrix(1.3333333,0,0,-1.3333333,0,793.70133)"
     id="g10"><g
       id="g12"><g
         id="g14"><g
           id="g20"><g
             id="g22"><path
               id="path44"
               style="fill:url(#linearGradient42);stroke:none"
               d="M 308.529,424.504 V 255.015 c 0,-17.074 13.842,-30.916 30.916,-30.916 v 0 h 200.404 l 3.478,4.057 -205.391,209.185 1.509,18.078 c -17.074,0 -30.916,-13.841 -30.916,-30.915" /></g></g></g></g><g
       id="g46"><g
         clip-path="url(#clipPath52)"
         id="g48"><path
           id="path54"
           style="fill:#253e8e;fill-opacity:1;fill-rule:nonzero;stroke:none"
           d="M 518.231,247.243 H 351.558 v 183.902 h 166.673 z" /></g></g><g
       id="g56"><g
         id="g58"><g
           id="g64"><g
             id="g66"><path
               id="path84"
               style="fill:url(#linearGradient82);stroke:none"
               d="m 411.218,393.424 v -32.855 h 14.424 c 19.105,0 28.373,6.771 28.373,17.682 v 0 c 0,9.907 -7.513,16.176 -22.673,16.176 v 0 l -17.107,-2.203 0.014,1.678 -1.86,0.825 z" /></g></g></g></g><g
       id="g86"><g
         id="g88"><g
           id="g94"><g
             id="g96"><path
               id="path114"
               style="fill:url(#linearGradient112);stroke:none"
               d="m 411.218,334.782 v -37.283 c 5.879,-0.463 11.805,-0.463 17.21,-0.463 v 0 c 13.944,0 25.855,5.583 25.855,19.368 v 0 c 0,13.261 -8.096,18.378 -30.214,18.378 v 0 l -10.984,0.186 -0.696,1.116 z" /></g></g></g></g><g
       id="g116"><g
         id="g118"><g
           id="g124"><g
             id="g126"><path
               id="path148"
               style="fill:url(#linearGradient146);stroke:none"
               d="m 412.389,394.727 v -32.856 h 14.424 c 19.105,0 28.372,6.773 28.372,17.682 v 0 c 0,9.908 -7.512,16.176 -22.672,16.176 v 0 c -7.579,0 -14.163,-0.438 -20.124,-1.002" /></g></g></g></g><g
       id="g150"><g
         id="g152"><g
           id="g158"><g
             id="g160"><path
               id="path182"
               style="fill:url(#linearGradient180);stroke:none"
               d="m 342.922,459.477 c -17.073,0 -30.915,-13.842 -30.915,-30.916 v 0 -169.489 c 0,-17.074 13.842,-30.916 30.915,-30.916 v 0 h 200.405 v 200.405 c 0,17.074 -13.842,30.916 -30.916,30.916 v 0 z m 31.095,-192.56 v 17.053 137.567 c 12.17,1.753 32.958,3.389 52.402,3.389 v 0 c 22.25,0 35.739,-1.577 48,-7.717 v 0 c 12.263,-5.727 21.199,-17.067 21.199,-32.442 v 0 c 0,-13.27 -7.243,-26.19 -25.518,-33.086 v 0 -0.586 c 19.268,-5.202 30.831,-19.524 30.831,-38.231 v 0 c 0,-14.845 -7.184,-26.48 -17.635,-34.371 v 0 c -11.853,-8.887 -31.417,-14.147 -65.169,-14.147 v 0 l -1.343,0.078 v -0.078 h -42.767 z" /></g></g></g></g><g
       id="g184"><g
         id="g186"><g
           id="g192"><g
             id="g194"><path
               id="path216"
               style="fill:url(#linearGradient214);stroke:none"
               d="m 412.389,336.084 v -37.282 c 5.879,-0.464 11.805,-0.464 17.21,-0.464 v 0 c 13.944,0 25.855,5.584 25.855,19.368 v 0 c 0,13.262 -8.096,18.378 -30.214,18.378 v 0 z" /></g></g></g></g><g
       id="g218"><g
         clip-path="url(#clipPath224)"
         id="g220"><g
           transform="translate(322.0054,186.4914)"
           id="g226"><path
             id="path228"
             style="fill:#37479d;fill-opacity:1;fill-rule:nonzero;stroke:none"
             d="M 0,0 C 2.384,0.144 4.667,0.198 6.926,0.458 7.843,0.564 8.798,0.984 9.58,1.497 11.894,3.012 11.675,6.332 9.227,7.611 8.743,7.864 8.208,8.058 7.674,8.171 5.257,8.681 2.827,8.351 0.403,8.197 0.26,8.188 0.019,7.901 0.017,7.741 -0.007,5.243 0,2.745 0,0 M 3.346,-6.187 C 3.341,-6.228 3.336,-6.269 3.331,-6.31 c -0.89,0 -1.781,-0.02 -2.67,0.008 -0.482,0.016 -0.682,-0.112 -0.678,-0.639 0.021,-2.643 0.016,-5.286 -0.005,-7.929 -0.004,-0.474 0.172,-0.642 0.624,-0.643 1.635,-0.002 3.276,-0.108 4.903,10e-4 1.012,0.068 2.051,0.334 2.992,0.719 1.991,0.815 2.847,2.43 2.634,4.63 -0.175,1.822 -1.234,2.985 -3.36,3.417 -1.453,0.295 -2.949,0.38 -4.425,0.559 m 0.679,22.688 c 0.957,-0.052 1.912,-0.116 2.869,-0.153 3.369,-0.131 6.657,-0.567 9.708,-2.163 4.995,-2.612 6.582,-8.86 3.304,-13.206 -1.053,-1.396 -2.457,-2.354 -4.04,-3.063 -0.28,-0.125 -0.561,-0.247 -0.959,-0.422 0.251,-0.13 0.381,-0.221 0.526,-0.268 4.062,-1.314 6.833,-3.852 7.419,-8.226 0.593,-4.432 -1.116,-7.95 -4.727,-10.536 -2.262,-1.621 -4.876,-2.416 -7.59,-2.763 -2.668,-0.342 -5.366,-0.456 -8.05,-0.675 -0.211,-0.017 -0.419,-0.069 -0.628,-0.105 H 1.568 c -1.915,0.147 -3.83,0.296 -5.745,0.439 -1.94,0.145 -3.881,0.285 -5.821,0.428 v 0.144 c 0.034,0.355 0.098,0.71 0.098,1.066 0.006,12.555 0.01,25.111 -0.006,37.666 -10e-4,0.634 0.104,0.947 0.832,0.99 3.483,0.209 6.964,0.47 10.446,0.712 0.643,0.045 1.287,0.09 1.931,0.135 z" /></g><g
           transform="translate(543.327,161.9902)"
           id="g230"><path
             id="path232"
             style="fill:#37479d;fill-opacity:1;fill-rule:nonzero;stroke:none"
             d="m 0,0 h -9.947 v 38.696 c 0.147,0.025 0.285,0.068 0.423,0.068 3.009,0.004 6.018,0.004 9.026,-0.001 0.166,0 0.332,-0.046 0.498,-0.071 z" /></g><g
           transform="translate(381.7217,162.0658)"
           id="g234"><path
             id="path236"
             style="fill:#37479d;fill-opacity:1;fill-rule:nonzero;stroke:none"
             d="m 0,0 v 38.631 c 0.22,0.023 0.408,0.059 0.595,0.059 2.457,0.005 4.915,-0.014 7.372,0.019 0.54,0.007 0.766,-0.302 1.021,-0.653 5.065,-6.968 10.13,-13.936 15.198,-20.901 0.223,-0.305 0.483,-0.584 0.725,-0.875 0.071,0.037 0.142,0.075 0.212,0.112 v 22.24 h 9.918 V -0.022 C 34.761,-0.035 34.504,-0.057 34.248,-0.057 31.959,-0.06 29.67,-0.038 27.382,-0.072 26.833,-0.08 26.514,0.102 26.198,0.534 21.155,7.428 16.096,14.31 11.038,21.193 c -0.289,0.394 -0.602,0.77 -0.904,1.155 -0.063,-0.022 -0.126,-0.044 -0.189,-0.066 V 0 Z" /></g><g
           transform="translate(446.0372,200.7143)"
           id="g238"><path
             id="path240"
             style="fill:#37479d;fill-opacity:1;fill-rule:nonzero;stroke:none"
             d="M 0,0 C 0.309,0.018 0.545,0.042 0.781,0.043 3.576,0.045 6.371,0.029 9.166,0.057 9.733,0.062 9.907,-0.094 9.906,-0.668 9.89,-8.921 9.96,-17.175 9.873,-25.427 9.819,-30.564 7.4,-34.515 2.832,-36.784 c -6.967,-3.459 -14.124,-3.45 -21.05,0.127 -4.433,2.289 -6.727,6.207 -6.773,11.221 -0.076,8.277 -0.02,16.554 -0.019,24.832 v 0.575 h 9.884 c 0.013,-0.251 0.037,-0.505 0.037,-0.759 0.001,-7.531 0.146,-15.066 -0.047,-22.593 -0.15,-5.813 4.626,-8.675 9.779,-7.484 3.358,0.777 5.354,3.404 5.356,6.867 0.005,7.7 0.001,15.4 0.001,23.1 z" /></g><g
           transform="translate(350.2244,200.7567)"
           id="g242"><path
             id="path244"
             style="fill:#37479d;fill-opacity:1;fill-rule:nonzero;stroke:none"
             d="m 0,0 c -0.253,0 -0.505,-0.026 -0.767,-0.04 v -38.658 h 28.673 v 7.513 c -0.363,0 -0.671,0 -0.979,0 -5.685,0 -11.37,0.008 -17.054,-0.014 -0.602,-0.002 -0.787,0.179 -0.779,0.773 0.028,2.02 0.008,4.041 0.007,6.062 -0.001,0.378 0,0.756 0,1.218 H 22.47 v 7.597 H 9.151 c -0.019,0.322 -0.047,0.581 -0.047,0.84 -0.005,2.093 0.022,4.187 -0.02,6.279 -0.013,0.683 0.173,0.896 0.88,0.893 5.685,-0.03 11.37,-0.018 17.055,-0.02 0.282,0 0.565,0 0.901,0 0.015,0.305 0.037,0.539 0.038,0.773 0.002,1.972 -0.029,3.946 0.017,5.917 0.016,0.69 -0.175,0.886 -0.875,0.884 z" /></g><g
           transform="translate(516.6687,193.1918)"
           id="g246"><path
             id="path248"
             style="fill:#37479d;fill-opacity:1;fill-rule:nonzero;stroke:none"
             d="m 0,0 h -19.999 v 7.523 h 32.583 c 0,-1.723 0.015,-3.4 -0.017,-5.077 C 12.563,2.217 12.357,1.972 12.2,1.769 5.797,-6.48 -0.611,-14.724 -7.017,-22.97 c -0.129,-0.167 -0.248,-0.341 -0.454,-0.624 h 19.98 v -7.532 h -32.596 c 0,1.445 0.026,2.88 -0.011,4.314 -0.017,0.637 0.158,1.135 0.553,1.643 6.347,8.141 12.675,16.296 19.007,24.448 C -0.393,-0.534 -0.254,-0.341 0,0" /></g><g
           transform="translate(472.597,169.574)"
           id="g250"><path
             id="path252"
             style="fill:#37479d;fill-opacity:1;fill-rule:nonzero;stroke:none"
             d="m 0,0 c 0.524,0 0.874,0 1.224,0 5.975,-0.001 11.95,-0.016 17.924,0.016 0.759,0.004 0.921,-0.224 0.901,-0.94 -0.053,-1.948 -0.02,-3.897 -0.021,-5.846 0,-0.235 0,-0.47 0,-0.797 h -0.907 c -10.263,0 -20.526,0.007 -30.788,-0.015 -0.706,-0.002 -0.981,0.138 -0.942,0.901 0.066,1.271 -0.006,2.55 0.036,3.823 0.011,0.356 0.133,0.77 0.347,1.046 6.008,7.764 12.035,15.514 18.058,23.266 0.514,0.662 1.024,1.327 1.647,2.135 h -19.988 v 7.596 h 0.882 c 10.287,0 20.573,-0.008 30.86,0.015 0.712,0.002 0.899,-0.211 0.865,-0.893 -0.055,-1.128 -0.058,-2.262 0,-3.39 0.038,-0.749 -0.21,-1.315 -0.662,-1.895 C 13.101,16.902 6.785,8.768 0.465,0.637 0.348,0.487 0.24,0.33 0,0" /></g></g></g></g></svg>