<?xml version="1.0" encoding="UTF-8" standalone="no"?>
<svg
   xmlns:dc="http://purl.org/dc/elements/1.1/"
   xmlns:cc="http://creativecommons.org/ns#"
   xmlns:rdf="http://www.w3.org/1999/02/22-rdf-syntax-ns#"
   xmlns:svg="http://www.w3.org/2000/svg"
   xmlns="http://www.w3.org/2000/svg"
   viewBox="0 0 793.70081 1122.5197"
   height="1122.5197"
   width="793.70081"
   xml:space="preserve"
   id="svg2"
   version="1.1"><metadata
     id="metadata8"><rdf:RDF><cc:Work
         rdf:about=""><dc:format>image/svg+xml</dc:format><dc:type
           rdf:resource="http://purl.org/dc/dcmitype/StillImage" /></cc:Work></rdf:RDF></metadata><defs
     id="defs6" /><g
     transform="matrix(1.3333333,0,0,-1.3333333,0,1122.5197)"
     id="g10"><g
       id="g12"><path
         id="path14"
         style="fill:#606163;fill-opacity:1;fill-rule:evenodd;stroke:none"
         d="m 206.1907,458.4832 h 9.032 c 2.0492,0 3.6754,-0.5935 4.8881,-1.7807 1.2076,-1.1871 1.8102,-2.5923 1.8102,-4.2142 0,-1.681 -0.5981,-3.1221 -1.7909,-4.3181 -1.1917,-1.1973 -2.8194,-1.7954 -4.8776,-1.7954 h -4.0153 v -8.1329 h -5.0465 z m 5.0465,-3.7097 v -4.689 h 2.3446 c 2.0965,0 3.1456,0.7821 3.1456,2.3445 0,0.8799 -0.2821,1.4882 -0.8414,1.8295 -0.5595,0.3416 -1.5134,0.515 -2.868,0.515 z m 14.2404,3.7097 h 9.0281 c 1.9587,0 3.5524,-0.5683 4.7778,-1.7005 1.2229,-1.1381 1.8357,-2.5137 1.8357,-4.1266 0,-2.2363 -1.1619,-3.8878 -3.4826,-4.9607 1.0238,-0.451 1.9941,-1.6914 2.9097,-3.7153 0.9139,-2.0288 1.8,-3.9427 2.6504,-5.7382 h -5.5202 c -0.3308,0.6678 -0.9096,1.9395 -1.7359,3.8092 -0.822,1.874 -1.5284,3.0818 -2.1073,3.6116 -0.5845,0.5341 -1.2019,0.8014 -1.8697,0.8014 h -1.4409 v -8.2222 h -5.0451 z m 5.0451,-3.7097 v -4.6 h 2.6519 c 0.8458,0 1.5134,0.1973 2.0091,0.5981 0.4941,0.4005 0.7419,0.9748 0.7419,1.7167 0,1.5239 -0.9556,2.2852 -2.8639,2.2852 z m 29.9724,-12.8222 v -3.7094 h -14.9289 v 20.2413 h 14.7215 v -3.7097 h -9.6761 v -4.2437 h 9.231 v -3.7097 h -9.231 v -4.8688 z m 14.7915,9.034 6.4948,7.4979 h 4.4129 v -20.2413 h -5.0468 v 12.6394 l -5.4901,-6.3479 h -0.7166 l -5.4873,6.3479 v -12.6394 h -5.0451 v 20.2413 h 4.3923 z m 26.098,7.7947 c 3.447,0 6.2382,-1.0431 8.375,-3.1308 2.1322,-2.0926 3.2006,-4.5216 3.2006,-7.2919 0,-2.8148 -1.0831,-5.2529 -3.2454,-7.3153 -2.1617,-2.0625 -4.9425,-3.0969 -8.3302,-3.0969 -3.4276,0 -6.2189,1.0284 -8.3746,3.0821 -2.1521,2.058 -3.2307,4.496 -3.2307,7.3301 0,2.7808 1.0684,5.2144 3.2111,7.2975 2.1367,2.0821 4.9368,3.1252 8.3942,3.1252 z m 0,-16.6209 c 1.9143,0 3.4574,0.57 4.6253,1.7124 1.1721,1.1367 1.7552,2.6371 1.7552,4.4918 0,1.8638 -0.5831,3.3638 -1.7552,4.5005 -1.1679,1.1336 -2.711,1.702 -4.6253,1.702 -1.9244,0 -3.4724,-0.5684 -4.6502,-1.702 -1.1724,-1.1367 -1.7615,-2.6367 -1.7615,-4.5005 0,-1.8547 0.5891,-3.3551 1.7615,-4.4918 1.1778,-1.1424 2.7258,-1.7124 4.6502,-1.7124 z m 30.6893,-0.2078 v -3.7094 h -15.4338 v 20.2413 h 5.0451 v -16.5319 z m 2.7658,16.5319 h 8.9286 c 3.4528,0 6.1786,-0.9439 8.1878,-2.834 2.003,-1.8848 3.0079,-4.3285 3.0079,-7.3216 0,-3.1414 -1.0197,-5.6044 -3.0524,-7.3999 -2.0344,-1.7912 -4.9368,-2.6858 -8.7074,-2.6858 h -8.3645 z m 5.0451,-3.7097 v -12.8222 h 3.2899 c 2.1382,0 3.7703,0.5893 4.898,1.7615 1.1324,1.1724 1.6962,2.7215 1.6962,4.6445 0,1.9882 -0.5743,3.5569 -1.7169,4.6993 -1.1472,1.1426 -2.7899,1.7169 -4.9369,1.7169 z m 33.7416,-12.8222 v -3.7094 h -14.9292 v 20.2413 h 14.7214 v -3.7097 h -9.6763 v -4.2437 h 9.231 v -3.7097 h -9.231 v -4.8688 z m 15.7258,16.5319 8.964,-20.2413 h -5.4221 l -1.6676,4.0065 h -9.0324 l -1.5088,-4.0065 h -5.3419 l 8.1329,20.2413 z m 0.4053,-12.702 -3.2692,7.8647 -2.9633,-7.8647 z m 10.8973,12.702 h 8.9285 c 3.4529,0 6.1787,-0.9439 8.1879,-2.834 2.0033,-1.8848 3.0076,-4.3285 3.0076,-7.3216 0,-3.1414 -1.0194,-5.6044 -3.0521,-7.3999 -2.0344,-1.7912 -4.9368,-2.6858 -8.7072,-2.6858 h -8.3647 z m 5.0454,-3.7097 v -12.8222 h 3.2896 c 2.1381,0 3.7703,0.5893 4.8982,1.7615 1.1322,1.1724 1.696,2.7215 1.696,4.6445 0,1.9882 -0.5743,3.5569 -1.7169,4.6993 -1.1469,1.1426 -2.7896,1.7169 -4.9369,1.7169 z m 29.527,4.0065 c 3.447,0 6.2382,-1.0431 8.375,-3.1308 2.1322,-2.0926 3.2006,-4.5216 3.2006,-7.2919 0,-2.8148 -1.0831,-5.2529 -3.2451,-7.3153 -2.1623,-2.0625 -4.9428,-3.0969 -8.3305,-3.0969 -3.4276,0 -6.2189,1.0284 -8.3749,3.0821 -2.1515,2.058 -3.2304,4.496 -3.2304,7.3301 0,2.7808 1.0684,5.2144 3.2111,7.2975 2.1368,2.0821 4.9371,3.1252 8.3942,3.1252 z m 0,-16.6209 c 1.9143,0 3.4575,0.57 4.6253,1.7124 1.1722,1.1367 1.7555,2.6371 1.7555,4.4918 0,1.8638 -0.5833,3.3638 -1.7555,4.5005 -1.1678,1.1336 -2.711,1.702 -4.6253,1.702 -1.9247,0 -3.4721,-0.5684 -4.6505,-1.702 -1.1721,-1.1367 -1.7611,-2.6367 -1.7611,-4.5005 0,-1.8547 0.589,-3.3551 1.7611,-4.4918 1.1784,-1.1424 2.7258,-1.7124 4.6505,-1.7124 z m 28.9681,15.0585 v -3.9575 c -2.6906,1.2062 -4.833,1.8102 -6.4312,1.8102 -0.9096,0 -1.6367,-0.1528 -2.1708,-0.46 -0.5403,-0.3073 -0.8073,-0.7124 -0.8073,-1.2167 0,-0.3903 0.1931,-0.7613 0.5845,-1.1086 0.3861,-0.3501 1.3312,-0.8013 2.8344,-1.3547 1.4987,-0.555 2.7005,-1.0683 3.6011,-1.5432 0.9009,-0.4748 1.6767,-1.1426 2.3298,-2.0032 0.6528,-0.8665 0.9794,-1.9542 0.9794,-3.2749 0,-1.8799 -0.7121,-3.3789 -2.1413,-4.4915 -1.4304,-1.1131 -3.3106,-1.6724 -5.6446,-1.6724 -2.5181,0 -4.9561,0.6486 -7.3214,1.9483 v 4.3432 c 1.3564,-0.8992 2.5583,-1.552 3.606,-1.963 1.0446,-0.411 2.1574,-0.6188 3.3296,-0.6188 1.9839,0 2.978,0.629 2.978,1.8799 0,0.4303 -0.1987,0.8354 -0.5992,1.2124 -0.3949,0.3799 -1.355,0.8459 -2.8684,1.3904 -1.5134,0.5491 -2.711,1.0534 -3.5969,1.518 -0.8903,0.4643 -1.6514,1.1276 -2.3,1.9882 -0.6426,0.8609 -0.9646,1.9647 -0.9646,3.3151 0,1.7405 0.7021,3.1459 2.1027,4.2185 1.4052,1.0684 3.284,1.6027 5.6342,1.6027 2.1665,0 4.4574,-0.5196 6.866,-1.5624" /><path
         id="path16"
         style="fill:#344a75;fill-opacity:1;fill-rule:evenodd;stroke:none"
         d="m 144.0893,488.2192 h 30.9498 V 457.27 h -30.9498 z" /><path
         id="path18"
         style="fill:#606163;fill-opacity:1;fill-rule:evenodd;stroke:none"
         d="m 179.6689,488.2192 h 14.3351 v -14.335 h -14.3351 z" /><path
         id="path20"
         style="fill:#606163;fill-opacity:1;fill-rule:evenodd;stroke:none"
         d="M 179.6689,471.5858 H 194.004 V 457.2507 H 179.6689 Z" /><path
         id="path22"
         style="fill:#606163;fill-opacity:1;fill-rule:evenodd;stroke:none"
         d="M 179.6689,453.1275 H 194.004 V 438.7924 H 179.6689 Z" /><path
         id="path24"
         style="fill:#606163;fill-opacity:1;fill-rule:evenodd;stroke:none"
         d="m 144.0893,453.1275 h 30.9498 v -14.3351 h -30.9498 z" /><path
         id="path26"
         style="fill:#606163;fill-opacity:1;fill-rule:evenodd;stroke:none"
         d="m 125.3115,471.5858 h 14.3348 v -14.3351 h -14.3348 z" /><path
         id="path28"
         style="fill:#606163;fill-opacity:1;fill-rule:evenodd;stroke:none"
         d="m 144.1097,506.5186 h 14.3351 v -14.3351 h -14.3351 z" /><path
         id="path30"
         style="fill:#343f68;fill-opacity:1;fill-rule:evenodd;stroke:none"
         d="m 240.0803,466.0211 h -7.2915 l -19.1937,29.5467 c -0.4884,0.7463 -0.8904,1.5225 -1.2064,2.3252 h -0.1721 c 0.1528,-0.8606 0.2197,-2.6977 0.2197,-5.5199 v -26.352 h -6.4386 v 40.1964 h 7.759 l 18.5632,-28.8388 c 0.7849,-1.1959 1.2821,-2.0183 1.512,-2.4678 h 0.1142 c -0.1913,1.061 -0.2863,2.8698 -0.2863,5.4056 v 25.901 h 6.4205 z m 42.9815,0 h -7.3197 l -3.6178,10.2283 h -15.806 l -3.4739,-10.2283 h -7.2915 l 15.0522,40.1964 h 7.5113 z m -12.6973,15.6725 -5.578,16.0376 c -0.1735,0.5165 -0.3543,1.3578 -0.5369,2.5166 h -0.1142 c -0.1633,-1.0624 -0.3549,-1.9052 -0.555,-2.5166 L 258.05,481.6936 Z m 49.2775,-15.6725 h -7.7978 l -6.4205,10.764 c -0.5743,0.9956 -1.1395,1.8369 -1.6945,2.5359 -0.5551,0.699 -1.1101,1.2733 -1.6844,1.7229 -0.5638,0.4493 -1.1854,0.7744 -1.8652,0.985 -0.669,0.2005 -1.4261,0.3059 -2.2674,0.3059 h -2.6887 v -16.3137 h -6.6401 v 40.1964 h 13.2225 c 1.8949,0 3.6266,-0.2196 5.216,-0.6692 1.5877,-0.4496 2.975,-1.1293 4.1519,-2.0373 1.1764,-0.9008 2.0951,-2.0284 2.7556,-3.3877 0.6703,-1.3592 0.9955,-2.9381 0.9955,-4.7559 0,-1.4154 -0.2106,-2.717 -0.6219,-3.9039 -0.4213,-1.1857 -1.0236,-2.2482 -1.7983,-3.1666 -0.7762,-0.9289 -1.7139,-1.7229 -2.8046,-2.3729 -1.0905,-0.6511 -2.325,-1.1588 -3.6828,-1.512 v -0.1156 c 0.7271,-0.411 1.3578,-0.8606 1.9037,-1.3578 0.5446,-0.4986 1.0523,-1.0046 1.5404,-1.5313 0.4881,-0.5165 0.9657,-1.11 1.4451,-1.779 0.4779,-0.6605 1.0046,-1.4261 1.588,-2.3077 z m -24.4185,34.7905 V 487.751 h 5.5497 c 1.0239,0 1.9811,0.1527 2.8414,0.4685 0.8711,0.3252 1.6266,0.7747 2.2587,1.3788 0.6412,0.5919 1.1293,1.3294 1.4825,2.1813 0.3634,0.8606 0.5358,1.828 0.5358,2.889 0,1.9231 -0.6027,3.4351 -1.8182,4.5168 -1.2152,1.0819 -2.9662,1.6262 -5.2424,1.6262 z m 29.0985,-34.7905 v 40.1964 h 11.5966 c 14.822,0 22.2372,-6.5245 22.2372,-19.5959 0,-6.1996 -2.0568,-11.1855 -6.1716,-14.9544 -4.1145,-3.7616 -9.6256,-5.6461 -16.5348,-5.6461 z m 6.6405,34.5325 V 471.657 h 5.3299 c 4.6874,0 8.3333,1.2923 10.9449,3.8653 2.6028,2.5835 3.9041,6.2291 3.9041,10.9375 0,9.396 -4.8597,14.0938 -14.6012,14.0938 z m 51.1055,-35.2017 c -5.7886,0 -10.4301,1.8742 -13.9232,5.6358 -3.4824,3.7497 -5.2231,8.6406 -5.2231,14.6591 0,6.4681 1.7793,11.6246 5.3285,15.4706 3.551,3.8478 8.3736,5.7796 14.459,5.7796 5.6443,0 10.1897,-1.8754 13.644,-5.6058 3.4455,-3.7423 5.1667,-8.6318 5.1667,-14.6696 0,-6.5542 -1.7597,-11.7402 -5.2914,-15.5582 -3.5405,-3.8078 -8.2579,-5.7115 -14.1605,-5.7115 z m 0.3059,35.6794 c -3.6743,0 -6.6688,-1.368 -8.985,-4.1131 -2.306,-2.7556 -3.4631,-6.3629 -3.4631,-10.8516 0,-4.468 1.129,-8.0663 3.3681,-10.792 2.2394,-2.7275 5.1758,-4.0955 8.8024,-4.0955 3.8461,0 6.8894,1.3013 9.1092,3.8936 2.2198,2.6028 3.3389,6.2382 3.3389,10.908 0,4.803 -1.0803,8.5159 -3.2437,11.1288 -2.1518,2.6116 -5.1281,3.9218 -8.9268,3.9218 z m 60.6067,-35.0102 h -7.2919 l -19.1936,29.5467 c -0.4882,0.7463 -0.8904,1.5225 -1.2065,2.3252 h -0.1723 c 0.1531,-0.8606 0.22,-2.6977 0.22,-5.5199 v -26.352 h -6.4387 v 40.1964 h 7.7593 l 18.563,-28.8388 c 0.7849,-1.1959 1.2821,-2.0183 1.512,-2.4678 h 0.1142 c -0.1913,1.061 -0.2863,2.8698 -0.2863,5.4056 v 25.901 h 6.4208 z m 16.7927,0 h -6.8616 v 40.1964 h 6.8616 z" /></g></g></svg>