<?xml version="1.0" encoding="UTF-8"?>
<svg id="Capa_2" data-name="Capa 2" xmlns="http://www.w3.org/2000/svg" viewBox="0 0 262.05 262.88">
  <defs>
    <style>
      .cls-1 {
        fill: #33a93d;
      }
    </style>
  </defs>
  <g id="Capa_1-2" data-name="Capa 1">
    <g>
      <path class="cls-1" d="M0,262.88l18.02-66.52C-15.55,133.46,2.31,57.35,63.08,19.48c77.07-48.03,180.29-2.66,196.65,86.18,20.09,109.15-93.86,190.88-191.21,139.33L0,262.88ZM32,230.88l40.45-9.96c50.36,31.43,116.76,18.14,149.35-31.72,40.73-62.32,6.4-147.55-65.99-163.63C58.51,3.96-11.58,110.57,42.9,192.34l-10.91,38.54Z"/>
      <path class="cls-1" d="M96.71,71.18c.84.69,2.82,4.7,3.47,6.02,1.93,3.95,9.3,20.92,9.76,24.26,1.28,9.19-10.33,14.64-10.74,19.07-.46,5,16.41,23.17,20.78,26.86,4.82,4.08,21.02,14.74,26.78,15.33s12.9-16.2,17.79-16.88c2.47-.34,6.66,1.87,9.12,2.86,3.84,1.56,20.16,9.14,22.62,11.12,5.24,4.24-1.25,19.92-5.81,24.03-18.8,16.95-45.79,6.91-65.15-3.81-28.86-15.97-85.62-75.75-47.84-107.19,3.91-3.25,15.62-4.67,19.23-1.69Z"/>
    </g>
  </g>
</svg>